<?xml version="1.0" encoding="UTF-8"?>
<svg id="_图层_1" data-name="图层_1" xmlns="http://www.w3.org/2000/svg" xmlns:xlink="http://www.w3.org/1999/xlink" version="1.1" viewBox="0 0 400 401">
  <!-- Generator: Adobe Illustrator 29.5.1, SVG Export Plug-In . SVG Version: 2.1.0 Build 141)  -->
  <defs>
    <style>
      .st0 {
        fill: none;
      }

      .st1 {
        fill: #ffdb00;
      }

      .st2 {
        clip-path: url(#clippath);
      }
    </style>
    <clipPath id="clippath">
      <rect class="st0" y=".68" width="400" height="400"/>
    </clipPath>
  </defs>
  <g class="st2">
    <g>
      <path d="M200,400.68c110.46,0,200-89.54,200-200S310.46.68,200,.68,0,90.22,0,200.68s89.54,200,200,200Z"/>
      <path class="st1" d="M315.58,219.36c-7.52-11.62-7.38-26.13.03-37.68v.02c7.38-11.43,11.7-25.08,11.82-39.72.3-41.45-34.32-74.65-75.52-74.65h-118.67c-27.27,0-49.38,22.12-49.38,49.38v167.9c0,27.27,22.12,49.38,49.38,49.38h120.55v-.2c40.7,0,73.67-33.17,73.67-74.1,0-14.87-4.35-28.72-11.88-40.33ZM232.7,298.81c-16.97,14.37-42.45,12.97-56.52-3.08-13.83-15.78-13.7-37.62-.47-53.73,6.22-7.53,12.58-15.48,16.4-24.33,6.2-14.33,3.27-32.68-6.2-45.15-4.02-5.3-8.6-10.12-12.58-15.42-11.4-15.07-10.8-36.22,1.28-50.03,12.82-14.7,33.37-18.6,49.9-9.3,3.33,1.87,6.38,4.03,9.02,6.48v-.02s-.01-.01-.02-.02h.02v.02c5.12,4.75,8.82,10.64,10.72,17.9,2.43,9.33,1.45,19.38-2.63,28.1-1.55,3.3-3.52,6.38-5.8,9.2-4.22,5.13-8.67,10.08-12.38,15.55-10.3,15.13-9.45,39.38,1.82,53.9,4.08,5.23,8.5,10.22,12.62,15.42,12.88,16.3,10.5,41.28-5.17,54.52Z"/>
    </g>
  </g>
</svg>