<svg width="1440" height="200" viewBox="0 0 1440 200" fill="none" xmlns="http://www.w3.org/2000/svg">
<path d="M719.567 21C733.41 21 745.314 24.3397 755.278 31.0186C765.297 37.6975 772.999 47.3931 778.385 60.1045C783.771 72.762 786.438 88.1126 786.384 106.156C786.384 124.308 783.69 139.82 778.304 152.693C772.971 165.566 765.323 175.397 755.358 182.184C745.394 188.97 733.464 192.363 719.567 192.363C705.671 192.309 693.713 188.889 683.694 182.103C673.73 175.316 666.055 165.485 660.669 152.612C655.337 139.739 652.697 124.254 652.751 106.156C652.751 88.1125 655.417 72.7349 660.749 60.0234C666.135 47.312 673.811 37.6436 683.775 31.0186C693.794 24.3396 705.725 21 719.567 21ZM610.868 23.2617V131.605H631.391V159.642H610.868V188.727H577.42V159.642H498V132.091L567.078 23.2617H610.868ZM921.702 131.605H942.225V159.642H921.702V188.727H888.254V159.642H808.834V132.091L877.912 23.2617H921.702V131.605ZM719.567 49.6816C710.142 49.6816 702.601 54.3947 696.945 63.8203C691.29 73.2462 688.435 87.3584 688.381 106.156C688.381 118.868 689.646 129.479 692.178 137.989C694.763 146.446 698.399 152.802 703.085 157.057C707.771 161.258 713.265 163.358 719.567 163.358C729.047 163.358 736.615 158.591 742.271 149.058C747.926 139.524 750.727 125.223 750.673 106.156C750.673 93.6065 749.38 83.1572 746.795 74.8086C744.263 66.4599 740.654 60.1847 735.968 55.9834C731.336 51.7824 725.869 49.6817 719.567 49.6816ZM576.773 61.3965L533.226 130.313V131.605H578.066V61.3965H576.773ZM844.06 130.313V131.605H888.9V61.3965H887.607L844.06 130.313Z" fill="url(#paint0_linear_235_3648)"/>
<defs>
<linearGradient id="paint0_linear_235_3648" x1="720.112" y1="21" x2="720.112" y2="192.363" gradientUnits="userSpaceOnUse">
<stop stop-color="#4F4F4F"/>
<stop offset="1"/>
</linearGradient>
</defs>
</svg>
