<svg width="139" height="139" viewBox="0 0 139 139" fill="none" xmlns="http://www.w3.org/2000/svg">
<path d="M139 69.5C139 107.884 107.884 139 69.5 139C31.1162 139 0 107.884 0 69.5C0 31.1162 31.1162 0 69.5 0C107.884 0 139 31.1162 139 69.5Z" fill="url(#paint0_radial_4689_29859)" fill-opacity="0.1"/>
<path d="M69.5 0.5C107.608 0.5 138.5 31.3924 138.5 69.5C138.5 107.608 107.608 138.5 69.5 138.5C31.3924 138.5 0.5 107.608 0.5 69.5C0.5 31.3924 31.3924 0.5 69.5 0.5Z" stroke="white" stroke-opacity="0.1" stroke-linecap="round" stroke-linejoin="round"/>
<path d="M69.4971 37.667C87.3542 37.667 101.831 52.1429 101.831 70C101.831 87.8572 87.3543 102.334 69.4971 102.334C51.64 102.334 37.1641 87.8571 37.1641 70C37.1642 52.143 51.6401 37.6672 69.4971 37.667Z" fill="url(#paint1_linear_4689_29859)" stroke="#6B7280" stroke-width="2" stroke-linecap="round" stroke-linejoin="round"/>
<path d="M56.1654 56.6667L82.832 83.3334M64.6322 57.5866C67.0463 56.6437 69.683 56.4248 72.2195 56.9568C74.7561 57.4888 77.0827 58.7485 78.9146 60.5818C80.7466 62.4152 82.0045 64.7427 82.5345 67.2797C83.0645 69.8167 82.8436 72.4532 81.8988 74.8666M78.9386 79.44C77.6989 80.6797 76.2272 81.663 74.6075 82.3339C72.9878 83.0048 71.2518 83.3502 69.4986 83.3502C67.7454 83.3502 66.0094 83.0048 64.3897 82.3339C62.77 81.663 61.2983 80.6797 60.0586 79.44C58.8189 78.2003 57.8356 76.7286 57.1647 75.1089C56.4938 73.4891 56.1484 71.7531 56.1484 70C56.1484 68.2468 56.4938 66.5108 57.1647 64.8911C57.8356 63.2714 58.8189 61.7997 60.0586 60.56" stroke="white" stroke-width="2" stroke-linecap="round" stroke-linejoin="round"/>
<defs>
<radialGradient id="paint0_radial_4689_29859" cx="0" cy="0" r="1" gradientUnits="userSpaceOnUse" gradientTransform="translate(69.5 69.5) rotate(90) scale(69.5)">
<stop stop-color="white" stop-opacity="0"/>
<stop offset="1" stop-color="white"/>
</radialGradient>
<linearGradient id="paint1_linear_4689_29859" x1="69.4974" y1="36.667" x2="69.4974" y2="103.334" gradientUnits="userSpaceOnUse">
<stop stop-color="#6B7280"/>
<stop offset="1" stop-color="#434750"/>
</linearGradient>
</defs>
</svg>
