<svg width="139" height="139" viewBox="0 0 139 139" fill="none" xmlns="http://www.w3.org/2000/svg">
<path d="M139 69.5C139 107.884 107.884 139 69.5 139C31.1162 139 0 107.884 0 69.5C0 31.1162 31.1162 0 69.5 0C107.884 0 139 31.1162 139 69.5Z" fill="url(#paint0_radial_3856_26007)" fill-opacity="0.1"/>
<path d="M69.5 0.5C107.608 0.5 138.5 31.3924 138.5 69.5C138.5 107.608 107.608 138.5 69.5 138.5C31.3924 138.5 0.5 107.608 0.5 69.5C0.5 31.3924 31.3924 0.5 69.5 0.5Z" stroke="white" stroke-opacity="0.1" stroke-linecap="round" stroke-linejoin="round"/>
<path d="M69.4971 37.667C87.3542 37.667 101.831 52.1429 101.831 70C101.831 87.8572 87.3543 102.334 69.4971 102.334C51.64 102.334 37.1641 87.8571 37.1641 70C37.1642 52.143 51.6401 37.6672 69.4971 37.667Z" fill="url(#paint1_linear_3856_26007)" stroke="#6B7280" stroke-width="2" stroke-linecap="round" stroke-linejoin="round"/>
<path d="M69.5013 62.0001V70.0001L74.8346 72.6667M82.8346 70.0001C82.8346 77.3639 76.8651 83.3334 69.5013 83.3334C62.1375 83.3334 56.168 77.3639 56.168 70.0001C56.168 62.6363 62.1375 56.6667 69.5013 56.6667C76.8651 56.6667 82.8346 62.6363 82.8346 70.0001Z" stroke="white" stroke-width="2" stroke-linecap="round" stroke-linejoin="round"/>
<defs>
<radialGradient id="paint0_radial_3856_26007" cx="0" cy="0" r="1" gradientUnits="userSpaceOnUse" gradientTransform="translate(69.5 69.5) rotate(90) scale(69.5)">
<stop stop-color="white" stop-opacity="0"/>
<stop offset="1" stop-color="white"/>
</radialGradient>
<linearGradient id="paint1_linear_3856_26007" x1="69.4974" y1="36.667" x2="69.4974" y2="103.334" gradientUnits="userSpaceOnUse">
<stop stop-color="#6B7280"/>
<stop offset="1" stop-color="#434750"/>
</linearGradient>
</defs>
</svg>
