<svg width="139" height="139" viewBox="0 0 139 139" fill="none" xmlns="http://www.w3.org/2000/svg">
<path d="M139 69.5C139 107.884 107.884 139 69.5 139C31.1162 139 0 107.884 0 69.5C0 31.1162 31.1162 0 69.5 0C107.884 0 139 31.1162 139 69.5Z" fill="url(#paint0_radial_3197_21733)" fill-opacity="0.15"/>
<path d="M69.5 0.5C107.608 0.5 138.5 31.3924 138.5 69.5C138.5 107.608 107.608 138.5 69.5 138.5C31.3924 138.5 0.5 107.608 0.5 69.5C0.5 31.3924 31.3924 0.5 69.5 0.5Z" stroke="#FB923C" stroke-opacity="0.15" stroke-linecap="round" stroke-linejoin="round"/>
<path d="M69.4974 103.334C87.9069 103.334 102.831 88.4098 102.831 70.0003C102.831 51.5908 87.9069 36.667 69.4974 36.667C51.0879 36.667 36.1641 51.5908 36.1641 70.0003C36.1641 88.4098 51.0879 103.334 69.4974 103.334Z" fill="url(#paint1_linear_3197_21733)"/>
<path d="M69.4971 37.667C87.3542 37.667 101.831 52.1429 101.831 70C101.831 87.8572 87.3543 102.334 69.4971 102.334C51.64 102.334 37.1641 87.8571 37.1641 70C37.1642 52.143 51.6401 37.6672 69.4971 37.667Z" stroke="#FB923C" stroke-opacity="0.5" stroke-width="2" stroke-linecap="round" stroke-linejoin="round"/>
<path d="M79.5 62L65.75 76L59.5 69.6364" stroke="white" stroke-width="2" stroke-linecap="round" stroke-linejoin="round"/>
<defs>
<radialGradient id="paint0_radial_3197_21733" cx="0" cy="0" r="1" gradientUnits="userSpaceOnUse" gradientTransform="translate(69.5 69.5) rotate(90) scale(69.5)">
<stop stop-color="#FB923C" stop-opacity="0"/>
<stop offset="1" stop-color="#FB923C"/>
</radialGradient>
<linearGradient id="paint1_linear_3197_21733" x1="69.4974" y1="36.667" x2="69.4974" y2="103.334" gradientUnits="userSpaceOnUse">
<stop stop-color="#FB923C"/>
<stop offset="1" stop-color="#C76A1E"/>
</linearGradient>
</defs>
</svg>
