<svg width="34" height="32" viewBox="0 0 34 32" fill="none" xmlns="http://www.w3.org/2000/svg">
<mask id="path-1-inside-1_1_2640" fill="white">
<path d="M5.00781 19.9446C6.96023 22.7711 9.84648 24.8767 13.208 25.7932L10.1758 31.3059L7 26.1282L0.71875 25.7297L5.00781 19.9446ZM33.2842 25.7297L27 26.1282L23.8271 31.3059L20.7949 25.7932C24.1567 24.8768 27.0427 22.7712 28.9951 19.9446L33.2842 25.7297ZM17 0.0852051C23.6275 0.0852051 29 5.57241 29 12.3411C28.9999 19.1097 23.6274 24.5969 17 24.5969C10.3726 24.5969 5.00006 19.1097 5 12.3411C5 5.57241 10.3726 0.0852051 17 0.0852051Z"/>
</mask>
<path d="M5.00781 19.9446C6.96023 22.7711 9.84648 24.8767 13.208 25.7932L10.1758 31.3059L7 26.1282L0.71875 25.7297L5.00781 19.9446ZM33.2842 25.7297L27 26.1282L23.8271 31.3059L20.7949 25.7932C24.1567 24.8768 27.0427 22.7712 28.9951 19.9446L33.2842 25.7297ZM17 0.0852051C23.6275 0.0852051 29 5.57241 29 12.3411C28.9999 19.1097 23.6274 24.5969 17 24.5969C10.3726 24.5969 5.00006 19.1097 5 12.3411C5 5.57241 10.3726 0.0852051 17 0.0852051Z" fill="url(#paint0_linear_1_2640)"/>
<path d="M5.00781 19.9446L5.41921 19.6604L5.02219 19.0856L4.60616 19.6468L5.00781 19.9446ZM13.208 25.7932L13.6461 26.0342L13.9521 25.4778L13.3395 25.3108L13.208 25.7932ZM10.1758 31.3059L9.74957 31.5673L10.1993 32.3006L10.6139 31.5469L10.1758 31.3059ZM7 26.1282L7.42622 25.8668L7.29057 25.6456L7.03165 25.6292L7 26.1282ZM0.71875 25.7297L0.317096 25.432L-0.230477 26.1705L0.687097 26.2287L0.71875 25.7297ZM33.2842 25.7297L33.3158 26.2287L34.2334 26.1706L33.6858 25.432L33.2842 25.7297ZM27 26.1282L26.9684 25.6292L26.7093 25.6456L26.5737 25.8669L27 26.1282ZM23.8271 31.3059L23.389 31.5469L23.8038 32.3009L24.2535 31.5672L23.8271 31.3059ZM20.7949 25.7932L20.6634 25.3108L20.0508 25.4778L20.3568 26.0342L20.7949 25.7932ZM28.9951 19.9446L29.3968 19.6468L28.9807 19.0856L28.5837 19.6604L28.9951 19.9446ZM29 12.3411L29.5 12.3411V12.3411H29ZM5 12.3411H4.5V12.3411L5 12.3411ZM5.00781 19.9446L4.59642 20.2288C6.61335 23.1487 9.59706 25.327 13.0765 26.2756L13.208 25.7932L13.3395 25.3108C10.0959 24.4265 7.30711 22.3935 5.41921 19.6604L5.00781 19.9446ZM13.208 25.7932L12.7699 25.5522L9.73768 31.0649L10.1758 31.3059L10.6139 31.5469L13.6461 26.0342L13.208 25.7932ZM10.1758 31.3059L10.602 31.0445L7.42622 25.8668L7 26.1282L6.57378 26.3896L9.74957 31.5673L10.1758 31.3059ZM7 26.1282L7.03165 25.6292L0.750403 25.2307L0.71875 25.7297L0.687097 26.2287L6.96835 26.6272L7 26.1282ZM0.71875 25.7297L1.1204 26.0275L5.40947 20.2424L5.00781 19.9446L4.60616 19.6468L0.317096 25.432L0.71875 25.7297ZM33.2842 25.7297L33.2525 25.2307L26.9684 25.6292L27 26.1282L27.0316 26.6272L33.3158 26.2287L33.2842 25.7297ZM27 26.1282L26.5737 25.8669L23.4008 31.0447L23.8271 31.3059L24.2535 31.5672L27.4263 26.3894L27 26.1282ZM23.8271 31.3059L24.2652 31.0649L21.233 25.5522L20.7949 25.7932L20.3568 26.0342L23.389 31.5469L23.8271 31.3059ZM20.7949 25.7932L20.9264 26.2756C24.4061 25.327 27.3896 23.1487 29.4065 20.2287L28.9951 19.9446L28.5837 19.6604C26.6958 22.3936 23.9072 24.4265 20.6634 25.3108L20.7949 25.7932ZM28.9951 19.9446L28.5935 20.2424L32.8825 26.0275L33.2842 25.7297L33.6858 25.432L29.3968 19.6468L28.9951 19.9446ZM17 0.0852051V0.585205C23.3414 0.585205 28.5 5.83855 28.5 12.3411H29H29.5C29.5 5.30627 23.9135 -0.414795 17 -0.414795V0.0852051ZM29 12.3411L28.5 12.3411C28.4999 18.8436 23.3414 24.0969 17 24.0969V24.5969V25.0969C23.9135 25.0969 29.4999 19.3759 29.5 12.3411L29 12.3411ZM17 24.5969V24.0969C10.6587 24.0969 5.50006 18.8436 5.5 12.3411L5 12.3411L4.5 12.3411C4.50007 19.3759 10.0866 25.0969 17 25.0969V24.5969ZM5 12.3411H5.5C5.5 5.83855 10.6586 0.585205 17 0.585205V0.0852051V-0.414795C10.0865 -0.414795 4.5 5.30627 4.5 12.3411H5Z" fill="black" fill-opacity="0.1" mask="url(#path-1-inside-1_1_2640)"/>
<path d="M12.5653 8.95407C12.6896 8.71376 12.87 8.5085 13.0918 8.3583L16.7843 5.70239L13.0016 12.1482C13.0016 12.1482 12.6701 11.5724 12.541 11.2821C12.3801 10.9166 12.2997 10.5186 12.3045 10.1156C12.307 9.71254 12.3972 9.31703 12.5653 8.95407ZM11.042 13.4023C11.0835 14.0181 11.2516 14.6188 11.5368 15.162C11.822 15.7052 12.2168 16.1808 12.6945 16.5538L16.7794 19.4876C16.7794 19.4876 14.2251 15.6927 12.0706 11.9179C11.8536 11.5199 11.705 11.0818 11.6367 10.6312C11.6075 10.426 11.6075 10.2182 11.6367 10.0129C11.5807 10.1206 11.471 10.3408 11.471 10.3408C11.2516 10.8014 11.103 11.2921 11.0298 11.7977C10.986 12.3309 10.9908 12.8691 11.042 13.4023ZM21.4542 13.9129C21.3225 13.6226 20.9959 13.0468 20.9959 13.0468L17.2181 19.4901L20.9106 16.8342C21.13 16.684 21.3104 16.4787 21.4371 16.2384C21.6053 15.8755 21.6955 15.4799 21.7003 15.0769C21.7052 14.6764 21.6223 14.2759 21.4639 13.9104L21.4542 13.9129ZM22.9531 11.7902C22.9117 11.1744 22.7411 10.5736 22.4583 10.0305C22.1756 9.48725 21.7783 9.01164 21.3006 8.63866L17.223 5.70239C17.223 5.70239 19.7773 9.49727 21.9319 13.2721C22.1488 13.6701 22.295 14.1082 22.3633 14.5588C22.3925 14.764 22.3925 14.9718 22.3633 15.1771C22.4193 15.0694 22.529 14.8491 22.529 14.8491C22.7484 14.3885 22.897 13.8979 22.9702 13.3923C23.014 12.8566 23.0092 12.3209 22.958 11.7852L22.9531 11.7902Z" fill="white"/>
<defs>
<linearGradient id="paint0_linear_1_2640" x1="17.0015" y1="0.0852051" x2="17.0015" y2="31.3059" gradientUnits="userSpaceOnUse">
<stop stop-color="#72A0FF"/>
<stop offset="1" stop-color="#3275FF"/>
</linearGradient>
</defs>
</svg>
