<svg width="34" height="32" viewBox="0 0 34 32" fill="none" xmlns="http://www.w3.org/2000/svg">
<path d="M5.00781 20.5186C6.96023 23.3451 9.84648 25.4507 13.208 26.3672L10.1758 31.8799L7 26.7021L0.71875 26.3037L5.00781 20.5186ZM33.2842 26.3037L27 26.7021L23.8271 31.8799L20.7949 26.3672C24.1566 25.4507 27.0427 23.3451 28.9951 20.5186L33.2842 26.3037ZM17 0.65918C23.6275 0.65918 29 6.14639 29 12.915C28.9999 19.6837 23.6274 25.1709 17 25.1709C10.3726 25.1709 5.00006 19.6837 5 12.915C5 6.14639 10.3726 0.65918 17 0.65918Z" fill="#171717"/>
<path d="M12.5653 9.52804C12.6896 9.28773 12.87 9.08247 13.0918 8.93228L16.7843 6.27637L13.0016 12.7221C13.0016 12.7221 12.6701 12.1464 12.541 11.856C12.3801 11.4906 12.2997 11.0926 12.3045 10.6895C12.307 10.2865 12.3972 9.89101 12.5653 9.52804ZM11.042 13.9763C11.0835 14.592 11.2516 15.1928 11.5368 15.736C11.822 16.2792 12.2168 16.7548 12.6945 17.1278L16.7794 20.0616C16.7794 20.0616 14.2251 16.2667 12.0706 12.4918C11.8536 12.0938 11.705 11.6558 11.6367 11.2052C11.6075 10.9999 11.6075 10.7922 11.6367 10.5869C11.5807 10.6945 11.471 10.9148 11.471 10.9148C11.2516 11.3754 11.103 11.866 11.0298 12.3717C10.986 12.9049 10.9908 13.4431 11.042 13.9763ZM21.4542 14.4869C21.3225 14.1965 20.9959 13.6208 20.9959 13.6208L17.2181 20.0641L20.9106 17.4082C21.13 17.258 21.3104 17.0527 21.4371 16.8124C21.6053 16.4494 21.6955 16.0539 21.7003 15.6509C21.7052 15.2504 21.6223 14.8499 21.4639 14.4844L21.4542 14.4869ZM22.9531 12.3642C22.9117 11.7484 22.7411 11.1476 22.4583 10.6044C22.1756 10.0612 21.7783 9.58562 21.3006 9.21264L17.223 6.27637C17.223 6.27637 19.7773 10.0712 21.9319 13.8461C22.1488 14.2441 22.295 14.6822 22.3633 15.1327C22.3925 15.338 22.3925 15.5458 22.3633 15.751C22.4193 15.6434 22.529 15.4231 22.529 15.4231C22.7484 14.9625 22.897 14.4719 22.9702 13.9662C23.014 13.4306 23.0092 12.8949 22.958 12.3592L22.9531 12.3642Z" fill="white"/>
</svg>
