<svg width="40" height="40" viewBox="0 0 40 40" fill="none" xmlns="http://www.w3.org/2000/svg">
<g clip-path="url(#clip0_966_6709)">
<mask id="mask0_966_6709" style="mask-type:luminance" maskUnits="userSpaceOnUse" x="-51" y="0" width="91" height="40">
<path d="M-50.7317 0H40V40H-50.7317V0Z" fill="white"/>
</mask>
<g mask="url(#mask0_966_6709)">
<path d="M33.242 9.41131C32.8678 8.71657 32.3277 8.12429 31.6694 7.68672L20.6214 0L31.9414 18.6501C31.9414 18.6501 32.9305 16.9848 33.3162 16.1421C33.7969 15.0826 34.0393 13.9312 34.0265 12.7685C34.0137 11.6059 33.7459 10.46 33.242 9.41131ZM37.8017 22.2767C37.6769 24.0602 37.1712 25.7966 36.3183 27.3695C35.4654 28.9426 34.2851 30.3157 32.8563 31.3973L20.6363 39.8872C20.6363 39.8872 28.2818 28.909 34.7306 17.985C35.3835 16.8309 35.8224 15.569 36.0263 14.2599C36.1165 13.6671 36.1165 13.064 36.0263 12.4712C36.1944 12.7817 36.5208 13.4173 36.5208 13.4173C37.1747 14.746 37.62 16.1668 37.8412 17.6302C37.9685 19.1771 37.9553 20.7322 37.8017 22.2767ZM6.64578 23.7549C7.04152 22.9123 8.02066 21.2468 8.02066 21.2468L19.3208 39.8872L8.27286 32.2054C7.61456 31.7678 7.07444 31.1756 6.70017 30.4809C6.19627 29.4321 5.92859 28.2862 5.91566 27.1237C5.90285 25.961 6.14529 24.8095 6.62602 23.75L6.64578 23.7549ZM2.16042 17.6154C2.28518 15.832 2.7909 14.0955 3.64371 12.5226C4.49664 10.9496 5.677 9.57638 7.10578 8.49482L19.306 0C19.306 0 11.6654 10.9782 5.21164 21.9022C4.56054 23.0567 4.12334 24.3185 3.92091 25.6273C3.83066 26.2201 3.83066 26.8232 3.92091 27.416C3.75274 27.1055 3.42639 26.4699 3.42639 26.4699C2.77249 25.1412 2.32712 23.7204 2.10603 22.257C1.977 20.7102 1.98859 19.1551 2.14054 17.6105L2.16042 17.6154Z" fill="url(#paint0_linear_966_6709)"/>
</g>
</g>
<defs>
<linearGradient id="paint0_linear_966_6709" x1="-46.1026" y1="52.8904" x2="-20.5487" y2="-25.04" gradientUnits="userSpaceOnUse">
<stop stop-color="#DE82FF"/>
<stop offset="1" stop-color="#7F6AFF"/>
</linearGradient>
<clipPath id="clip0_966_6709">
<rect width="40" height="40" fill="white" transform="matrix(-1 0 0 1 40 0)"/>
</clipPath>
</defs>
</svg>
