<svg width="32" height="32" viewBox="0 0 32 32" fill="none" xmlns="http://www.w3.org/2000/svg">
<mask id="path-1-inside-1_485_11050" fill="white">
<path d="M4.21484 19.9043C6.13338 22.6818 8.96927 24.7508 12.2725 25.6514L9.29297 31.0684L6.17188 25.9805L0 25.5889L4.21484 19.9043ZM32 25.5889L25.8252 25.9805L22.707 31.0684L19.7275 25.6514C23.0309 24.7508 25.8667 22.6818 27.7852 19.9043L32 25.5889ZM15.999 0.389648C22.5112 0.389904 27.79 5.78164 27.79 12.4326C27.79 19.0836 22.5112 24.4753 15.999 24.4756C9.48669 24.4756 4.20705 19.0838 4.20703 12.4326C4.20703 5.78149 9.48668 0.389648 15.999 0.389648Z"/>
</mask>
<path d="M4.21484 19.9043C6.13338 22.6818 8.96927 24.7508 12.2725 25.6514L9.29297 31.0684L6.17188 25.9805L0 25.5889L4.21484 19.9043ZM32 25.5889L25.8252 25.9805L22.707 31.0684L19.7275 25.6514C23.0309 24.7508 25.8667 22.6818 27.7852 19.9043L32 25.5889ZM15.999 0.389648C22.5112 0.389904 27.79 5.78164 27.79 12.4326C27.79 19.0836 22.5112 24.4753 15.999 24.4756C9.48669 24.4756 4.20705 19.0838 4.20703 12.4326C4.20703 5.78149 9.48668 0.389648 15.999 0.389648Z" fill="url(#paint0_linear_485_11050)"/>
<path d="M4.21484 19.9043L4.6191 19.6251L4.22899 19.0603L3.82018 19.6117L4.21484 19.9043ZM12.2725 25.6514L12.703 25.8882L13.0037 25.3415L12.4017 25.1773L12.2725 25.6514ZM9.29297 31.0684L8.87417 31.3253L9.31612 32.0457L9.72346 31.3051L9.29297 31.0684ZM6.17188 25.9805L6.59067 25.7236L6.45738 25.5063L6.20299 25.4901L6.17188 25.9805ZM0 25.5889L-0.394668 25.2962L-0.932778 26.022L-0.0311113 26.0792L0 25.5889ZM32 25.5889L32.0311 26.0792L32.9328 26.022L32.3947 25.2962L32 25.5889ZM25.8252 25.9805L25.7941 25.4901L25.5396 25.5063L25.4063 25.7237L25.8252 25.9805ZM22.707 31.0684L22.2765 31.3051L22.6841 32.0461L23.1259 31.3251L22.707 31.0684ZM19.7275 25.6514L19.5983 25.1773L18.9963 25.3415L19.297 25.8882L19.7275 25.6514ZM27.7852 19.9043L28.1798 19.6117L27.771 19.0603L27.3809 19.6251L27.7852 19.9043ZM15.999 0.389648L15.999 -0.10167H15.999V0.389648ZM27.79 12.4326L28.2814 12.4326V12.4326H27.79ZM15.999 24.4756V24.9669H15.999L15.999 24.4756ZM4.20703 12.4326H3.71571V12.4326L4.20703 12.4326ZM4.21484 19.9043L3.81059 20.1835C5.79251 23.0528 8.72417 25.1932 12.1432 26.1254L12.2725 25.6514L12.4017 25.1773C9.21437 24.3084 6.47424 22.3108 4.6191 19.6251L4.21484 19.9043ZM12.2725 25.6514L11.842 25.4146L8.86247 30.8316L9.29297 31.0684L9.72346 31.3051L12.703 25.8882L12.2725 25.6514ZM9.29297 31.0684L9.71177 30.8115L6.59067 25.7236L6.17188 25.9805L5.75308 26.2374L8.87417 31.3253L9.29297 31.0684ZM6.17188 25.9805L6.20299 25.4901L0.0311113 25.0985L0 25.5889L-0.0311113 26.0792L6.14076 26.4708L6.17188 25.9805ZM0 25.5889L0.394668 25.8815L4.60951 20.1969L4.21484 19.9043L3.82018 19.6117L-0.394668 25.2962L0 25.5889ZM32 25.5889L31.9689 25.0985L25.7941 25.4901L25.8252 25.9805L25.8563 26.4708L32.0311 26.0792L32 25.5889ZM25.8252 25.9805L25.4063 25.7237L22.2881 30.8116L22.707 31.0684L23.1259 31.3251L26.2441 26.2372L25.8252 25.9805ZM22.707 31.0684L23.1375 30.8316L20.158 25.4146L19.7275 25.6514L19.297 25.8882L22.2765 31.3051L22.707 31.0684ZM19.7275 25.6514L19.8568 26.1254C23.276 25.1933 26.2075 23.0528 28.1894 20.1835L27.7852 19.9043L27.3809 19.6251C25.5258 22.3108 22.7858 24.3084 19.5983 25.1773L19.7275 25.6514ZM27.7852 19.9043L27.3905 20.1969L31.6053 25.8815L32 25.5889L32.3947 25.2962L28.1798 19.6117L27.7852 19.9043ZM15.999 0.389648L15.999 0.880967C22.2301 0.881211 27.2987 6.04316 27.2987 12.4326H27.79H28.2814C28.2814 5.52013 22.7923 -0.101404 15.999 -0.10167L15.999 0.389648ZM27.79 12.4326L27.2987 12.4326C27.2987 18.8221 22.2301 23.984 15.999 23.9843L15.999 24.4756L15.999 24.9669C22.7923 24.9666 28.2813 19.3451 28.2814 12.4326L27.79 12.4326ZM15.999 24.4756V23.9843C9.76774 23.9843 4.69836 18.8222 4.69835 12.4326L4.20703 12.4326L3.71571 12.4326C3.71573 19.3453 9.20564 24.9669 15.999 24.9669V24.4756ZM4.20703 12.4326H4.69835C4.69835 6.04303 9.76773 0.880967 15.999 0.880967V0.389648V-0.10167C9.20563 -0.10167 3.71571 5.51994 3.71571 12.4326H4.20703Z" fill="black" fill-opacity="0.1" mask="url(#path-1-inside-1_485_11050)"/>
<path d="M17.2635 8.37885V16.9546H15.4504V10.0999H15.4001L13.4363 11.3309V9.723L15.5593 8.37885H17.2635Z" fill="white"/>
<defs>
<linearGradient id="paint0_linear_485_11050" x1="16" y1="0.389648" x2="16" y2="31.0683" gradientUnits="userSpaceOnUse">
<stop stop-color="#FED984"/>
<stop offset="1" stop-color="#FFAE0B"/>
</linearGradient>
</defs>
</svg>
