<svg width="40" height="40" viewBox="0 0 40 40" fill="none" xmlns="http://www.w3.org/2000/svg">
<path d="M8 0.5H32C36.1421 0.5 39.5 3.85786 39.5 8V32C39.5 36.1421 36.1421 39.5 32 39.5H8C3.85786 39.5 0.5 36.1421 0.5 32V8C0.5 3.85786 3.85786 0.5 8 0.5Z" stroke="black" stroke-opacity="0.1"/>
<path d="M8.46968 7.56567L18.4634 14.9881L16.6153 10.609L8.46968 7.56567Z" fill="#E2761B" stroke="#E2761B" stroke-width="0.100439" stroke-linecap="round" stroke-linejoin="round"/>
<path d="M31.5406 7.56567L21.6273 15.0584L23.3849 10.609L31.5406 7.56567ZM12.0655 24.7709L14.7271 28.8487L9.03219 30.4156L7.39504 24.8613L12.0655 24.7709ZM32.5952 24.8613L30.9681 30.4156L25.2732 28.8487L27.9348 24.7709L32.5952 24.8613Z" fill="#E4761B" stroke="#E4761B" stroke-width="0.100439" stroke-linecap="round" stroke-linejoin="round"/>
<path d="M25.5947 17.8805L27.1816 20.281L21.5269 20.5321L21.7278 14.4556L25.5947 17.8805ZM14.4158 17.8805L18.333 14.3853L18.4635 20.5321L12.8188 20.281L14.4158 17.8805ZM25.2733 28.8485L21.8785 27.1912L24.8113 24.9012L25.2733 28.8485ZM18.1321 27.1912L14.7272 28.8485L15.1993 24.9012L18.1321 27.1912Z" fill="#E4761B" stroke="#E4761B" stroke-width="0.100439" stroke-linecap="round" stroke-linejoin="round"/>
<path d="M14.7268 28.8487L18.1317 27.1914L17.8605 29.4111L17.8907 30.3452L14.7268 28.8487ZM25.2729 28.8487L22.1091 30.3452L22.1292 29.4111L21.8781 27.1914L25.2729 28.8487Z" fill="#D7C1B3" stroke="#D7C1B3" stroke-width="0.100439" stroke-linecap="round" stroke-linejoin="round"/>
<path d="M22.0592 23.4349L24.8916 22.6013L22.8929 21.6873L22.0592 23.4349ZM17.9513 23.4349L17.1176 21.6873L15.1088 22.6013L17.9513 23.4349Z" fill="#233447" stroke="#233447" stroke-width="0.100439" stroke-linecap="round" stroke-linejoin="round"/>
<path d="M25.2729 28.8487L24.7908 24.7709L27.9346 24.8613L25.2729 28.8487ZM15.2089 24.7709L14.7268 28.8487L12.0652 24.8613L15.2089 24.7709ZM12.8185 20.2812L18.4632 20.5323L17.9409 23.435L17.1072 21.6874L15.0984 22.6014L12.8185 20.2812ZM24.8913 22.6014L22.8825 21.6874L22.0589 23.435L21.5266 20.5323L27.1813 20.2812L24.8913 22.6014Z" fill="#CD6116" stroke="#CD6116" stroke-width="0.100439" stroke-linecap="round" stroke-linejoin="round"/>
<path d="M27.1816 20.2812L24.8113 24.9015L24.8916 22.6014L27.1816 20.2812ZM15.0988 22.6014L15.1993 24.9015L12.8188 20.2812L15.0988 22.6014ZM21.5269 20.5323L22.0592 23.435L21.3963 26.86L21.2457 22.3503L21.5269 20.5323ZM18.4635 20.5323L18.7347 22.3403L18.6142 26.86L17.9412 23.435L18.4635 20.5323Z" fill="#E4751F" stroke="#E4751F" stroke-width="0.100439" stroke-linecap="round" stroke-linejoin="round"/>
<path d="M17.9412 23.435L18.6142 26.8599L18.132 27.1914L15.1992 24.9014L15.0988 22.6013L17.9412 23.435ZM24.8916 22.6013L24.8112 24.9014L21.8784 27.1914L21.3963 26.8599L22.0592 23.435L24.8916 22.6013Z" fill="#F6851B" stroke="#F6851B" stroke-width="0.100439" stroke-linecap="round" stroke-linejoin="round"/>
<path d="M17.8907 30.3452L17.8605 29.4111L18.1116 29.1901H21.8982L22.1292 29.4111L22.1091 30.3452L25.2729 28.8486L24.1681 29.7526L21.9283 31.3094H18.0815L15.8317 29.7526L14.7268 28.8486L17.8907 30.3452Z" fill="#C0AD9E" stroke="#C0AD9E" stroke-width="0.100439" stroke-linecap="round" stroke-linejoin="round"/>
<path d="M18.1319 27.1913L18.614 26.8599H21.3962L21.8783 27.1913L22.1294 29.411L21.8984 29.1901H18.1118L17.8607 29.411L18.1319 27.1913Z" fill="#161616" stroke="#161616" stroke-width="0.100439" stroke-linecap="round" stroke-linejoin="round"/>
<path d="M8.04791 15.4702L7.19417 11.3723L8.46975 7.56567L18.132 14.737L14.4157 17.8808L9.16278 19.4175L7.99769 18.0616L8.49988 17.7L7.69637 16.9668L8.31909 16.4847L7.51558 15.872L8.04791 15.4702ZM32.8062 11.3723L31.9524 15.4702L32.4948 15.872L31.6913 16.4847L32.304 16.9668L31.5004 17.7L32.0026 18.0616L30.8476 19.4175L25.5946 17.8808L21.8784 14.737L31.5406 7.56567L32.8062 11.3723Z" fill="#763D16" stroke="#763D16" stroke-width="0.100439" stroke-linecap="round" stroke-linejoin="round"/>
<path d="M9.16276 19.4174L14.4157 17.8807L12.8188 20.2812L15.1992 24.9014L12.0655 24.8612H7.39504L9.16276 19.4174ZM25.5946 17.8807L30.8476 19.4174L32.5952 24.8612H27.9348L24.8112 24.9014L27.1815 20.2812L25.5946 17.8807ZM18.4634 20.5323L18.132 14.7369L16.6053 10.6089H23.3849L21.8784 14.7369L21.5268 20.5323L21.4063 22.3603L21.3963 26.8599H18.6141L18.594 22.3603L18.4634 20.5323Z" fill="#F6851B" stroke="#F6851B" stroke-width="0.100439" stroke-linecap="round" stroke-linejoin="round"/>
</svg>
