<svg width="32" height="32" viewBox="0 0 32 32" fill="none" xmlns="http://www.w3.org/2000/svg">
<mask id="path-1-inside-1_485_11080" fill="white">
<path d="M4.21484 20.4463C6.13337 23.2238 8.96928 25.2928 12.2725 26.1934L9.29297 31.6104L6.17188 26.5225L0 26.1309L4.21484 20.4463ZM32 26.1309L25.8252 26.5225L22.707 31.6104L19.7275 26.1934C23.0309 25.2928 25.8667 23.2238 27.7852 20.4463L32 26.1309ZM15.999 0.931641C22.5112 0.931896 27.79 6.32367 27.79 12.9746C27.79 19.6256 22.5112 25.0173 15.999 25.0176C9.48668 25.0176 4.20703 19.6258 4.20703 12.9746C4.20706 6.32351 9.4867 0.931641 15.999 0.931641Z"/>
</mask>
<path d="M4.21484 20.4463C6.13337 23.2238 8.96928 25.2928 12.2725 26.1934L9.29297 31.6104L6.17188 26.5225L0 26.1309L4.21484 20.4463ZM32 26.1309L25.8252 26.5225L22.707 31.6104L19.7275 26.1934C23.0309 25.2928 25.8667 23.2238 27.7852 20.4463L32 26.1309ZM15.999 0.931641C22.5112 0.931896 27.79 6.32367 27.79 12.9746C27.79 19.6256 22.5112 25.0173 15.999 25.0176C9.48668 25.0176 4.20703 19.6258 4.20703 12.9746C4.20706 6.32351 9.4867 0.931641 15.999 0.931641Z" fill="url(#paint0_linear_485_11080)"/>
<path d="M4.21484 20.4463L4.6191 20.1671L4.22899 19.6023L3.82018 20.1537L4.21484 20.4463ZM12.2725 26.1934L12.703 26.4301L13.0036 25.8835L12.4017 25.7193L12.2725 26.1934ZM9.29297 31.6104L8.87417 31.8673L9.31612 32.5877L9.72346 31.8471L9.29297 31.6104ZM6.17188 26.5225L6.59067 26.2656L6.45738 26.0483L6.20299 26.0321L6.17188 26.5225ZM0 26.1309L-0.394668 25.8382L-0.932778 26.564L-0.0311113 26.6212L0 26.1309ZM32 26.1309L32.0311 26.6212L32.9328 26.564L32.3947 25.8382L32 26.1309ZM25.8252 26.5225L25.7941 26.0321L25.5396 26.0483L25.4063 26.2657L25.8252 26.5225ZM22.707 31.6104L22.2765 31.8471L22.6841 32.5881L23.1259 31.8671L22.707 31.6104ZM19.7275 26.1934L19.5983 25.7193L18.9963 25.8834L19.297 26.4301L19.7275 26.1934ZM27.7852 20.4463L28.1798 20.1537L27.771 19.6023L27.3809 20.1671L27.7852 20.4463ZM15.999 0.931641L15.999 0.440322H15.999V0.931641ZM27.79 12.9746H28.2814V12.9746L27.79 12.9746ZM15.999 25.0176V25.5089H15.999L15.999 25.0176ZM4.20703 12.9746L3.71571 12.9746V12.9746H4.20703ZM4.21484 20.4463L3.81059 20.7255C5.79251 23.5948 8.72418 25.7352 12.1432 26.6674L12.2725 26.1934L12.4017 25.7193C9.21438 24.8504 6.47424 22.8528 4.6191 20.1671L4.21484 20.4463ZM12.2725 26.1934L11.842 25.9566L8.86247 31.3736L9.29297 31.6104L9.72346 31.8471L12.703 26.4301L12.2725 26.1934ZM9.29297 31.6104L9.71177 31.3534L6.59067 26.2656L6.17188 26.5225L5.75308 26.7794L8.87417 31.8673L9.29297 31.6104ZM6.17188 26.5225L6.20299 26.0321L0.0311113 25.6405L0 26.1309L-0.0311113 26.6212L6.14076 27.0128L6.17188 26.5225ZM0 26.1309L0.394668 26.4235L4.60951 20.7389L4.21484 20.4463L3.82018 20.1537L-0.394668 25.8382L0 26.1309ZM32 26.1309L31.9689 25.6405L25.7941 26.0321L25.8252 26.5225L25.8563 27.0128L32.0311 26.6212L32 26.1309ZM25.8252 26.5225L25.4063 26.2657L22.2881 31.3536L22.707 31.6104L23.1259 31.8671L26.2441 26.7792L25.8252 26.5225ZM22.707 31.6104L23.1375 31.3736L20.158 25.9566L19.7275 26.1934L19.297 26.4301L22.2765 31.8471L22.707 31.6104ZM19.7275 26.1934L19.8568 26.6674C23.276 25.7352 26.2075 23.5948 28.1894 20.7255L27.7852 20.4463L27.3809 20.1671C25.5258 22.8528 22.7858 24.8504 19.5983 25.7193L19.7275 26.1934ZM27.7852 20.4463L27.3905 20.7389L31.6053 26.4235L32 26.1309L32.3947 25.8382L28.1798 20.1537L27.7852 20.4463ZM15.999 0.931641L15.999 1.42296C22.2301 1.4232 27.2987 6.58517 27.2987 12.9746L27.79 12.9746L28.2814 12.9746C28.2813 6.06216 22.7923 0.440589 15.999 0.440322L15.999 0.931641ZM27.79 12.9746H27.2987C27.2987 19.3641 22.2301 24.526 15.999 24.5263L15.999 25.0176L15.999 25.5089C22.7923 25.5086 28.2814 19.8871 28.2814 12.9746H27.79ZM15.999 25.0176V24.5263C9.76773 24.5263 4.69835 19.3642 4.69835 12.9746H4.20703H3.71571C3.71571 19.8873 9.20564 25.5089 15.999 25.5089V25.0176ZM4.20703 12.9746L4.69835 12.9746C4.69838 6.58505 9.76775 1.42296 15.999 1.42296V0.931641V0.440322C9.20565 0.440322 3.71575 6.06196 3.71571 12.9746L4.20703 12.9746Z" fill="black" fill-opacity="0.1" mask="url(#path-1-inside-1_485_11080)"/>
<path d="M12.7035 17.4968V16.1904L15.7561 13.3639C16.0157 13.1126 16.2334 12.8865 16.4093 12.6855C16.588 12.4845 16.7234 12.2877 16.8155 12.0951C16.9076 11.8997 16.9537 11.6889 16.9537 11.4628C16.9537 11.2116 16.8964 10.9952 16.782 10.8138C16.6675 10.6295 16.5112 10.4886 16.313 10.3909C16.1148 10.2904 15.8901 10.2401 15.6388 10.2401C15.3764 10.2401 15.1475 10.2931 14.9521 10.3992C14.7567 10.5053 14.6059 10.6574 14.4999 10.8557C14.3938 11.0539 14.3407 11.2897 14.3407 11.5633H12.6197C12.6197 11.0022 12.7467 10.5151 13.0008 10.1019C13.2548 9.68877 13.6107 9.36913 14.0686 9.14301C14.5264 8.9169 15.054 8.80384 15.6514 8.80384C16.2655 8.80384 16.8001 8.91271 17.2552 9.13045C17.713 9.3454 18.0689 9.6441 18.3229 10.0266C18.577 10.409 18.704 10.8473 18.704 11.3414C18.704 11.6652 18.6398 11.9848 18.5114 12.3003C18.3857 12.6157 18.161 12.9661 17.8372 13.3513C17.5134 13.7338 17.057 14.193 16.4679 14.729L15.2159 15.9559V16.0145H18.817V17.4968H12.7035Z" fill="white"/>
<defs>
<linearGradient id="paint0_linear_485_11080" x1="16" y1="0.931641" x2="16" y2="31.6103" gradientUnits="userSpaceOnUse">
<stop stop-color="#CCCCCC"/>
<stop offset="1" stop-color="#A6A6A6"/>
</linearGradient>
</defs>
</svg>
