<svg width="32" height="31" viewBox="0 0 32 31" fill="none" xmlns="http://www.w3.org/2000/svg">
<mask id="path-1-inside-1_485_11109" fill="white">
<path d="M4.21484 19.5146C6.13337 22.2921 8.96928 24.3612 12.2725 25.2617L9.29297 30.6787L6.17188 25.5908L0 25.1992L4.21484 19.5146ZM32 25.1992L25.8252 25.5908L22.707 30.6787L19.7275 25.2617C23.0309 24.3612 25.8667 22.2922 27.7852 19.5146L32 25.1992ZM15.999 0C22.5112 0.000255423 27.79 5.39202 27.79 12.043C27.79 18.694 22.5112 24.0857 15.999 24.0859C9.48668 24.0859 4.20703 18.6942 4.20703 12.043C4.20706 5.39187 9.4867 0 15.999 0Z"/>
</mask>
<path d="M4.21484 19.5146C6.13337 22.2921 8.96928 24.3612 12.2725 25.2617L9.29297 30.6787L6.17188 25.5908L0 25.1992L4.21484 19.5146ZM32 25.1992L25.8252 25.5908L22.707 30.6787L19.7275 25.2617C23.0309 24.3612 25.8667 22.2922 27.7852 19.5146L32 25.1992ZM15.999 0C22.5112 0.000255423 27.79 5.39202 27.79 12.043C27.79 18.694 22.5112 24.0857 15.999 24.0859C9.48668 24.0859 4.20703 18.6942 4.20703 12.043C4.20706 5.39187 9.4867 0 15.999 0Z" fill="url(#paint0_linear_485_11109)"/>
<path d="M4.21484 19.5146L4.6191 19.2354L4.22899 18.6707L3.82018 19.222L4.21484 19.5146ZM12.2725 25.2617L12.703 25.4985L13.0036 24.9518L12.4017 24.7877L12.2725 25.2617ZM9.29297 30.6787L8.87417 30.9356L9.31612 31.6561L9.72346 30.9155L9.29297 30.6787ZM6.17188 25.5908L6.59067 25.3339L6.45738 25.1166L6.20299 25.1005L6.17188 25.5908ZM0 25.1992L-0.394668 24.9066L-0.932778 25.6323L-0.0311113 25.6896L0 25.1992ZM32 25.1992L32.0311 25.6896L32.9328 25.6324L32.3947 24.9066L32 25.1992ZM25.8252 25.5908L25.7941 25.1005L25.5396 25.1166L25.4063 25.3341L25.8252 25.5908ZM22.707 30.6787L22.2765 30.9155L22.6841 31.6564L23.1259 30.9354L22.707 30.6787ZM19.7275 25.2617L19.5983 24.7877L18.9963 24.9518L19.297 25.4985L19.7275 25.2617ZM27.7852 19.5146L28.1798 19.222L27.771 18.6706L27.3809 19.2354L27.7852 19.5146ZM15.999 0L15.999 -0.491319H15.999V0ZM27.79 12.043H28.2814V12.043L27.79 12.043ZM15.999 24.0859V24.5773H15.999L15.999 24.0859ZM4.20703 12.043L3.71571 12.043V12.043H4.20703ZM4.21484 19.5146L3.81059 19.7939C5.79251 22.6631 8.72418 24.8036 12.1432 25.7357L12.2725 25.2617L12.4017 24.7877C9.21438 23.9187 6.47424 21.9211 4.6191 19.2354L4.21484 19.5146ZM12.2725 25.2617L11.842 25.0249L8.86247 30.4419L9.29297 30.6787L9.72346 30.9155L12.703 25.4985L12.2725 25.2617ZM9.29297 30.6787L9.71177 30.4218L6.59067 25.3339L6.17188 25.5908L5.75308 25.8477L8.87417 30.9356L9.29297 30.6787ZM6.17188 25.5908L6.20299 25.1005L0.0311113 24.7089L0 25.1992L-0.0311113 25.6896L6.14076 26.0812L6.17188 25.5908ZM0 25.1992L0.394668 25.4918L4.60951 19.8073L4.21484 19.5146L3.82018 19.222L-0.394668 24.9066L0 25.1992ZM32 25.1992L31.9689 24.7089L25.7941 25.1005L25.8252 25.5908L25.8563 26.0812L32.0311 25.6896L32 25.1992ZM25.8252 25.5908L25.4063 25.3341L22.2881 30.422L22.707 30.6787L23.1259 30.9354L26.2441 25.8476L25.8252 25.5908ZM22.707 30.6787L23.1375 30.4419L20.158 25.0249L19.7275 25.2617L19.297 25.4985L22.2765 30.9155L22.707 30.6787ZM19.7275 25.2617L19.8568 25.7357C23.276 24.8036 26.2075 22.6632 28.1894 19.7939L27.7852 19.5146L27.3809 19.2354C25.5258 21.9212 22.7858 23.9187 19.5983 24.7877L19.7275 25.2617ZM27.7852 19.5146L27.3905 19.8073L31.6053 25.4918L32 25.1992L32.3947 24.9066L28.1798 19.222L27.7852 19.5146ZM15.999 0L15.999 0.491319C22.2301 0.491563 27.2987 5.65353 27.2987 12.043L27.79 12.043L28.2814 12.043C28.2813 5.13052 22.7923 -0.491052 15.999 -0.491319L15.999 0ZM27.79 12.043H27.2987C27.2987 18.4325 22.2301 23.5944 15.999 23.5946L15.999 24.0859L15.999 24.5773C22.7923 24.577 28.2814 18.9555 28.2814 12.043H27.79ZM15.999 24.0859V23.5946C9.76773 23.5946 4.69835 18.4326 4.69835 12.043H4.20703H3.71571C3.71571 18.9557 9.20564 24.5773 15.999 24.5773V24.0859ZM4.20703 12.043L4.69835 12.043C4.69838 5.65341 9.76775 0.491319 15.999 0.491319V0V-0.491319C9.20565 -0.491319 3.71575 5.13032 3.71571 12.043L4.20703 12.043Z" fill="black" fill-opacity="0.1" mask="url(#path-1-inside-1_485_11109)"/>
<path d="M15.7006 16.6824C15.0753 16.6824 14.5184 16.575 14.0298 16.36C13.5441 16.1423 13.1603 15.8436 12.8783 15.4639C12.5991 15.0815 12.4554 14.6404 12.447 14.1407H14.2727C14.2839 14.3501 14.3523 14.5343 14.4779 14.6934C14.6063 14.8498 14.7766 14.9712 14.9887 15.0577C15.2009 15.1443 15.4396 15.1875 15.7048 15.1875C15.9811 15.1875 16.2254 15.1387 16.4376 15.041C16.6497 14.9433 16.8158 14.8079 16.9359 14.6348C17.0559 14.4617 17.1159 14.2621 17.1159 14.036C17.1159 13.8071 17.0517 13.6047 16.9233 13.4288C16.7977 13.2502 16.6162 13.1106 16.3789 13.0101C16.1445 12.9096 15.8653 12.8594 15.5415 12.8594H14.7417V11.5278H15.5415C15.815 11.5278 16.0565 11.4803 16.2659 11.3854C16.478 11.2905 16.6428 11.1593 16.76 10.9918C16.8772 10.8215 16.9359 10.6233 16.9359 10.3972C16.9359 10.1822 16.8842 9.9938 16.7809 9.83189C16.6804 9.66718 16.5381 9.53877 16.3538 9.44665C16.1724 9.35453 15.9602 9.30847 15.7173 9.30847C15.4717 9.30847 15.247 9.35313 15.0432 9.44246C14.8394 9.529 14.6761 9.65323 14.5533 9.81514C14.4304 9.97705 14.3648 10.1669 14.3564 10.3846H12.6187C12.6271 9.89051 12.768 9.45502 13.0416 9.07816C13.3152 8.7013 13.6837 8.40678 14.1471 8.19462C14.6133 7.97967 15.1395 7.8722 15.7257 7.8722C16.3175 7.8722 16.8354 7.97967 17.2792 8.19462C17.7231 8.40958 18.0679 8.6999 18.3135 9.0656C18.562 9.4285 18.6848 9.83608 18.682 10.2883C18.6848 10.7685 18.5354 11.1691 18.234 11.4901C17.9353 11.8111 17.5458 12.0149 17.0657 12.1014V12.1684C17.6966 12.2494 18.1767 12.4685 18.5061 12.8259C18.8383 13.1804 19.003 13.6243 19.0002 14.1574C19.003 14.646 18.8621 15.0801 18.5773 15.4597C18.2954 15.8394 17.9059 16.1381 17.409 16.3558C16.9121 16.5736 16.3427 16.6824 15.7006 16.6824Z" fill="white"/>
<defs>
<linearGradient id="paint0_linear_485_11109" x1="16" y1="0" x2="16" y2="30.6786" gradientUnits="userSpaceOnUse">
<stop stop-color="#EBB495"/>
<stop offset="1" stop-color="#E07E47"/>
</linearGradient>
</defs>
</svg>
