<svg xmlns="http://www.w3.org/2000/svg" version="1.1" xmlns:xlink="http://www.w3.org/1999/xlink" width="34" height="32"><svg width="34" height="32" viewBox="0 0 34 32" fill="none" xmlns="http://www.w3.org/2000/svg">
<path d="M5.00781 19.9446C6.96023 22.7711 9.84648 24.8767 13.208 25.7932L10.1758 31.3059L7 26.1282L0.71875 25.7297L5.00781 19.9446ZM33.2842 25.7297L27 26.1282L23.8271 31.3059L20.7949 25.7932C24.1566 24.8768 27.0427 22.7712 28.9951 19.9446L33.2842 25.7297ZM17 0.0852051C23.6275 0.0852051 29 5.57241 29 12.3411C28.9999 19.1097 23.6274 24.5969 17 24.5969C10.3726 24.5969 5.00006 19.1097 5 12.3411C5 5.57241 10.3726 0.0852051 17 0.0852051Z" fill="#4581FF"></path>
<path d="M12.5653 8.9541C12.6896 8.71379 12.87 8.50853 13.0918 8.35833L16.7843 5.70242L13.0016 12.1482C13.0016 12.1482 12.6701 11.5725 12.541 11.2821C12.3801 10.9166 12.2997 10.5186 12.3045 10.1156C12.307 9.71257 12.3972 9.31706 12.5653 8.9541ZM11.042 13.4023C11.0835 14.0181 11.2516 14.6189 11.5368 15.1621C11.822 15.7053 12.2168 16.1809 12.6945 16.5539L16.7794 19.4876C16.7794 19.4876 14.2251 15.6928 12.0706 11.9179C11.8536 11.5199 11.705 11.0818 11.6367 10.6313C11.6075 10.426 11.6075 10.2182 11.6367 10.013C11.5807 10.1206 11.471 10.3409 11.471 10.3409C11.2516 10.8015 11.103 11.2921 11.0298 11.7978C10.986 12.3309 10.9908 12.8691 11.042 13.4023ZM21.4542 13.913C21.3225 13.6226 20.9959 13.0469 20.9959 13.0469L17.2181 19.4901L20.9106 16.8342C21.13 16.684 21.3104 16.4788 21.4371 16.2385C21.6053 15.8755 21.6955 15.48 21.7003 15.077C21.7052 14.6764 21.6223 14.2759 21.4639 13.9105L21.4542 13.913ZM22.9531 11.7902C22.9117 11.1745 22.7411 10.5737 22.4583 10.0305C22.1756 9.48728 21.7783 9.01167 21.3006 8.63869L17.223 5.70242C17.223 5.70242 19.7773 9.4973 21.9319 13.2721C22.1488 13.6702 22.295 14.1082 22.3633 14.5588C22.3925 14.7641 22.3925 14.9718 22.3633 15.1771C22.4193 15.0695 22.529 14.8492 22.529 14.8492C22.7484 14.3886 22.897 13.8979 22.9702 13.3923C23.014 12.8566 23.0092 12.3209 22.958 11.7852L22.9531 11.7902Z" fill="white"></path>
</svg><style>@media (prefers-color-scheme: light) { :root { filter: none; } }
@media (prefers-color-scheme: dark) { :root { filter: none; } }
</style></svg>