<svg xmlns="http://www.w3.org/2000/svg" version="1.1" xmlns:xlink="http://www.w3.org/1999/xlink" width="1000" height="1000"><g clip-path="url(#SvgjsClipPath1028)"><rect width="1000" height="1000" fill="#ffffff"></rect><g transform="matrix(4.3478260869565215,0,0,4.3478260869565215,150,165.21739130434787)"><svg xmlns="http://www.w3.org/2000/svg" version="1.1" xmlns:xlink="http://www.w3.org/1999/xlink" width="161" height="154"><svg width="161" height="154" viewBox="0 0 161 154" fill="none" xmlns="http://www.w3.org/2000/svg">
<mask id="path-1-inside-1_595_36131" fill="white">
<path d="M21.6485 98.1927C31.2203 112.05 45.3697 122.372 61.8497 126.865L46.9835 153.889L31.4142 128.508L0.621185 126.551L21.6485 98.1927ZM160.273 126.551L129.463 128.508L113.909 153.889L99.0431 126.865C115.524 122.372 129.673 112.05 139.244 98.1927L160.273 126.551ZM80.4386 0.832336C112.929 0.832336 139.269 27.7324 139.269 60.9153C139.269 94.0985 112.929 120.998 80.4386 120.998C47.9483 120.998 21.6095 94.0984 21.6095 60.9153C21.6095 27.7326 47.9483 0.832585 80.4386 0.832336Z"></path>
</mask>
<path d="M21.6485 98.1927C31.2203 112.05 45.3697 122.372 61.8497 126.865L46.9835 153.889L31.4142 128.508L0.621185 126.551L21.6485 98.1927ZM160.273 126.551L129.463 128.508L113.909 153.889L99.0431 126.865C115.524 122.372 129.673 112.05 139.244 98.1927L160.273 126.551ZM80.4386 0.832336C112.929 0.832336 139.269 27.7324 139.269 60.9153C139.269 94.0985 112.929 120.998 80.4386 120.998C47.9483 120.998 21.6095 94.0984 21.6095 60.9153C21.6095 27.7326 47.9483 0.832585 80.4386 0.832336Z" fill="url(#paint0_linear_595_36131)"></path>
<path d="M21.6485 98.1927L23.6654 96.7996L21.7192 93.982L19.6795 96.7327L21.6485 98.1927ZM61.8497 126.865L63.9974 128.046L65.4978 125.318L62.4944 124.5L61.8497 126.865ZM46.9835 153.889L44.8941 155.171L47.0989 158.765L49.1312 155.07L46.9835 153.889ZM31.4142 128.508L33.5036 127.226L32.8387 126.142L31.5696 126.062L31.4142 128.508ZM0.621185 126.551L-1.34781 125.091L-4.03228 128.712L0.465713 128.997L0.621185 126.551ZM160.273 126.551L160.428 128.997L164.926 128.712L162.242 125.091L160.273 126.551ZM129.463 128.508L129.308 126.062L128.038 126.142L127.373 127.227L129.463 128.508ZM113.909 153.889L111.762 155.07L113.795 158.767L115.999 155.17L113.909 153.889ZM99.0431 126.865L98.3984 124.5L95.3949 125.318L96.8954 128.046L99.0431 126.865ZM139.244 98.1927L141.213 96.7327L139.174 93.982L137.227 96.7996L139.244 98.1927ZM80.4386 0.832336L80.4386 -1.61888L80.4385 -1.61888L80.4386 0.832336ZM139.269 60.9153L141.72 60.9153V60.9153H139.269ZM80.4386 120.998L80.4385 123.45H80.4386V120.998ZM21.6095 60.9153L19.1582 60.9153V60.9153L21.6095 60.9153ZM21.6485 98.1927L19.6317 99.5858C29.5198 113.901 44.147 124.579 61.205 129.229L61.8497 126.865L62.4944 124.5C46.5924 120.164 32.9208 110.199 23.6654 96.7996L21.6485 98.1927ZM61.8497 126.865L59.702 125.683L44.8358 152.708L46.9835 153.889L49.1312 155.07L63.9974 128.046L61.8497 126.865ZM46.9835 153.889L49.0729 152.607L33.5036 127.226L31.4142 128.508L29.3247 129.79L44.8941 155.171L46.9835 153.889ZM31.4142 128.508L31.5696 126.062L0.776658 124.105L0.621185 126.551L0.465713 128.997L31.2587 130.954L31.4142 128.508ZM0.621185 126.551L2.59018 128.011L23.6175 99.6527L21.6485 98.1927L19.6795 96.7327L-1.34781 125.091L0.621185 126.551ZM160.273 126.551L160.117 124.105L129.308 126.062L129.463 128.508L129.618 130.954L160.428 128.997L160.273 126.551ZM129.463 128.508L127.373 127.227L111.819 152.608L113.909 153.889L115.999 155.17L131.553 129.789L129.463 128.508ZM113.909 153.889L116.057 152.708L101.191 125.683L99.0431 126.865L96.8954 128.046L111.762 155.07L113.909 153.889ZM99.0431 126.865L99.6878 129.229C116.746 124.579 131.373 113.901 141.261 99.5858L139.244 98.1927L137.227 96.7996C127.972 110.199 114.301 120.164 98.3984 124.5L99.0431 126.865ZM139.244 98.1927L137.275 99.6527L158.304 128.011L160.273 126.551L162.242 125.091L141.213 96.7327L139.244 98.1927ZM80.4386 0.832336V3.28356C111.527 3.28356 136.817 29.0373 136.817 60.9153H139.269H141.72C141.72 26.4276 114.332 -1.61888 80.4386 -1.61888V0.832336ZM139.269 60.9153L136.817 60.9153C136.817 92.7937 111.527 118.547 80.4386 118.547V120.998V123.45C114.332 123.45 141.72 95.4033 141.72 60.9153L139.269 60.9153ZM80.4386 120.998L80.4386 118.547C49.3505 118.547 24.0607 92.7936 24.0607 60.9153L21.6095 60.9153L19.1582 60.9153C19.1582 95.4032 46.5461 123.449 80.4385 123.45L80.4386 120.998ZM21.6095 60.9153H24.0607C24.0607 29.0374 49.3505 3.28379 80.4386 3.28356L80.4386 0.832336L80.4385 -1.61888C46.546 -1.61862 19.1582 26.4278 19.1582 60.9153H21.6095Z" fill="black" fill-opacity="0.1" mask="url(#path-1-inside-1_595_36131)"></path>
<path d="M58.6984 44.3116C59.3077 43.1335 60.1919 42.1272 61.2793 41.3909L79.3816 28.3704L60.8372 59.9705C60.8372 59.9705 59.2121 57.1479 58.5789 55.7244C57.7902 53.9327 57.3959 51.9815 57.4198 50.0057C57.4318 48.0299 57.8739 46.091 58.6984 44.3116ZM51.2304 66.1187C51.4335 69.1375 52.258 72.0828 53.656 74.7458C55.054 77.4088 56.9897 79.7404 59.3316 81.5689L79.3577 95.9515C79.3577 95.9515 66.8354 77.3474 56.2728 58.8414C55.2093 56.8902 54.4805 54.7426 54.1459 52.5337C54.0025 51.5274 54.0025 50.5089 54.1459 49.5026C53.8711 50.0302 53.3334 51.1102 53.3334 51.1102C52.258 53.3682 51.5291 55.7735 51.1707 58.2524C50.9556 60.8663 50.9795 63.5047 51.2304 66.1187ZM102.275 68.6221C101.63 67.1986 100.029 64.376 100.029 64.376L81.5084 95.9638L99.6107 82.9434C100.686 82.2071 101.57 81.2008 102.192 80.0227C103.016 78.2432 103.458 76.3043 103.482 74.3285C103.506 72.365 103.1 70.4015 102.323 68.6098L102.275 68.6221ZM109.624 58.2156C109.421 55.1967 108.584 52.2515 107.198 49.5885C105.812 46.9255 103.864 44.5938 101.522 42.7653L81.5323 28.3704C81.5323 28.3704 94.0546 46.9746 104.617 65.4805C105.681 67.4317 106.398 69.5793 106.732 71.7882C106.876 72.7945 106.876 73.8131 106.732 74.8194C107.007 74.2917 107.545 73.2118 107.545 73.2118C108.62 70.9538 109.349 68.5485 109.707 66.0696C109.922 63.4434 109.899 60.8172 109.648 58.191L109.624 58.2156Z" fill="white"></path>
<defs>
<linearGradient id="paint0_linear_595_36131" x1="80.4469" y1="0.832336" x2="80.4469" y2="153.889" gradientUnits="userSpaceOnUse">
<stop stop-color="#72A0FF"></stop>
<stop offset="1" stop-color="#3275FF"></stop>
</linearGradient>
<clipPath id="SvgjsClipPath1028"><rect width="1000" height="1000" x="0" y="0" rx="350" ry="350"></rect></clipPath></defs>
</svg></svg></g></g></svg>